<?xml version="1.0" standalone="no"?>
<!DOCTYPE svg PUBLIC "-//W3C//DTD SVG 20010904//EN"
 "http://www.w3.org/TR/2001/REC-SVG-20010904/DTD/svg10.dtd">
<svg version="1.0" xmlns="http://www.w3.org/2000/svg"
 width="342.000000pt" height="235.000000pt" viewBox="0 0 342.000000 235.000000"
 preserveAspectRatio="xMidYMid meet">
<metadata>
Created by potrace 1.16, written by Peter Selinger 2001-2019
</metadata>
<g transform="translate(0.000000,235.000000) scale(0.100000,-0.100000)"
fill="#000000" stroke="none">
<path d="M646 2119 c-20 -16 -34 -19 -54 -14 -64 16 -120 15 -317 -5 -194 -20
-251 -32 -214 -44 8 -3 113 -11 234 -19 210 -13 222 -13 269 5 27 10 57 16 69
12 20 -6 19 -7 -6 -21 -19 -9 -27 -22 -27 -39 0 -23 3 -25 25 -20 14 4 25 2
25 -3 0 -5 -10 -11 -22 -13 -27 -4 -35 -39 -19 -81 8 -21 22 -29 68 -42 70
-19 178 -65 382 -162 85 -40 157 -73 162 -73 8 0 82 100 77 104 -2 2 -50 22
-108 46 -96 39 -260 108 -352 147 -21 9 -38 22 -38 29 0 19 -37 36 -60 29 -11
-4 -30 1 -42 9 -22 16 -22 16 9 16 17 0 43 -4 57 -10 24 -9 26 -8 26 20 0 20
-7 33 -22 41 -20 11 -20 12 -4 21 13 7 31 5 60 -6 41 -16 50 -15 252 19 286
49 286 50 -4 60 -191 7 -217 6 -252 -10 -38 -17 -39 -17 -66 4 -34 27 -74 27
-108 0z m84 -5 c0 -17 -22 -14 -28 4 -2 7 3 12 12 12 9 0 16 -7 16 -16z m3
-80 c11 -11 -3 -24 -18 -18 -8 4 -12 10 -9 15 6 11 18 12 27 3z"/>
<path d="M2678 2118 c-19 -19 -24 -20 -52 -7 -23 10 -73 14 -186 13 -212 -1
-303 -5 -293 -15 11 -10 348 -69 398 -69 21 0 53 5 71 12 17 6 40 8 50 4 18
-7 18 -9 -3 -23 -15 -10 -23 -26 -23 -44 0 -26 2 -28 25 -19 16 6 25 6 25 0 0
-6 -9 -10 -21 -10 -13 0 -23 -8 -26 -20 -3 -12 -22 -29 -42 -39 -35 -18 -322
-144 -370 -162 l-24 -10 21 -22 c11 -12 24 -36 29 -53 l8 -32 210 98 c116 53
233 102 262 109 73 18 86 30 87 82 l1 43 -55 13 -55 12 58 -3 c54 -2 57 -1 57
20 0 15 -10 28 -27 37 -26 14 -26 15 -5 21 13 5 41 0 67 -10 41 -15 63 -16
270 -4 196 11 249 19 234 35 -2 2 -98 13 -212 25 -196 21 -255 21 -319 5 -19
-5 -31 -2 -47 14 -28 28 -84 28 -113 -1z m82 2 c0 -5 -4 -10 -9 -10 -6 0 -13
5 -16 10 -3 6 1 10 9 10 9 0 16 -4 16 -10z m5 -90 c3 -5 2 -10 -4 -10 -5 0
-13 5 -16 10 -3 6 -2 10 4 10 5 0 13 -4 16 -10z"/>
<path d="M220 1917 c8 -8 156 -103 329 -211 448 -281 604 -396 801 -588 52
-51 110 -105 129 -120 19 -15 30 -28 25 -28 -5 0 -26 14 -47 31 -21 17 -40 30
-42 28 -5 -6 67 -124 104 -169 88 -109 234 -129 343 -47 39 29 174 215 163
225 -2 3 -21 -9 -42 -25 -77 -60 -65 -44 52 68 270 260 366 331 878 653 163
103 297 190 297 192 0 30 -599 -307 -790 -445 -98 -71 -118 -76 -145 -38 -19
28 -25 23 -161 -159 -145 -194 -157 -196 -170 -18 -11 168 30 280 120 324 51
24 113 21 141 -7 20 -19 19 -3 0 24 -46 66 -224 53 -392 -28 -99 -47 -199
-142 -253 -238 -19 -34 -40 -68 -47 -75 -7 -8 -10 -16 -8 -18 3 -3 -1 -5 -8
-5 -6 0 -20 -4 -29 -8 -13 -5 -18 -1 -22 17 -13 59 -15 59 -9 -1 3 -36 14 -90
24 -120 11 -30 17 -56 15 -58 -9 -10 -234 289 -318 425 -11 17 -28 32 -37 32
-22 0 -41 -19 -41 -41 0 -12 -9 -19 -27 -21 -20 -2 -58 18 -149 78 -68 45
-181 115 -251 155 -216 123 -467 249 -433 216z m1620 -642 c33 -17 57 -46 57
-67 0 -13 -10 -9 -49 18 -27 18 -65 36 -84 40 -35 6 -35 7 -12 19 24 13 47 11
88 -10z m-54 -121 c60 -29 103 -129 74 -174 -7 -11 -10 -3 -10 28 0 85 -58
142 -143 142 -52 0 -101 -33 -122 -83 -7 -16 -15 -25 -18 -20 -10 16 28 77 63
101 40 27 106 29 156 6z m-22 -67 c14 -10 15 -18 7 -40 -13 -34 -54 -33 -59 1
-2 12 -7 22 -12 22 -5 0 -7 7 -4 15 7 18 44 20 68 2z m-64 -107 c0 -5 -4 -10
-10 -10 -5 0 -10 5 -10 10 0 6 5 10 10 10 6 0 10 -4 10 -10z m-15 -36 c9 -9
14 -19 11 -21 -9 -9 -46 9 -46 23 0 19 15 18 35 -2z m-54 -41 c13 -16 12 -17
-3 -4 -17 13 -22 21 -14 21 2 0 10 -8 17 -17z m-80 -10 c13 -16 12 -17 -3 -4
-17 13 -22 21 -14 21 2 0 10 -8 17 -17z m339 4 c0 -2 -15 -16 -32 -33 l-33
-29 29 33 c28 30 36 37 36 29z m-162 -24 c-10 -2 -26 -2 -35 0 -10 3 -2 5 17
5 19 0 27 -2 18 -5z m-72 -61 c-5 -4 -66 26 -66 33 0 3 16 -3 35 -12 19 -9 33
-18 31 -21z m67 -9 c-7 -2 -19 -2 -25 0 -7 3 -2 5 12 5 14 0 19 -2 13 -5z"/>
<path d="M1404 1871 c8 -13 90 -23 122 -15 25 7 26 8 9 15 -28 11 -137 11
-131 0z"/>
<path d="M1650 1834 c0 -5 26 -17 58 -26 43 -13 61 -24 74 -46 10 -17 39 -39
65 -52 l48 -23 95 24 c52 13 111 23 130 21 34 -3 35 -3 13 13 -13 9 -20 22
-17 30 4 10 0 15 -10 15 -9 0 -19 -7 -22 -15 -9 -22 -26 -19 -142 21 -79 27
-126 37 -198 41 -53 3 -94 2 -94 -3z m275 -62 l40 -18 -27 -18 c-33 -21 -55
-15 -86 25 l-24 29 29 0 c15 0 46 -9 68 -18z"/>
<path d="M1426 1700 c-89 -33 -206 -105 -206 -126 0 -18 3 -18 41 5 18 11 62
28 98 37 58 16 108 47 180 110 14 13 -46 -1 -113 -26z"/>
<path d="M1463 1544 c-62 -37 -152 -119 -141 -129 3 -3 32 12 63 34 32 23 65
41 72 41 15 0 58 43 74 73 14 25 1 21 -68 -19z"/>
<path d="M220 470 l0 -160 163 0 163 0 17 29 c9 16 17 32 17 35 0 3 -63 6
-140 6 l-140 0 0 30 0 30 108 0 107 0 17 30 17 30 -124 0 -125 0 0 30 0 30
120 0 119 0 16 30 c8 16 15 31 15 35 0 3 -79 5 -175 5 l-175 0 0 -160z"/>
<path d="M809 563 c-66 -105 -149 -243 -149 -248 0 -3 19 -5 43 -5 l42 0 71
121 72 121 72 -121 71 -121 45 0 45 0 -23 38 c-175 288 -170 282 -210 282 -34
0 -39 -4 -79 -67z"/>
<path d="M1254 620 c-79 -32 -110 -182 -52 -255 37 -47 67 -55 206 -55 160 0
162 2 162 113 l0 77 -83 0 c-80 0 -84 -1 -95 -25 -7 -14 -12 -28 -12 -30 0 -3
25 -5 55 -5 54 0 55 0 55 -30 l0 -30 -98 0 c-110 0 -124 7 -136 66 -10 43 16
102 46 109 13 3 69 6 126 8 l103 2 20 33 21 32 -149 -1 c-81 0 -157 -4 -169
-9z"/>
<path d="M1670 470 l0 -160 148 0 148 0 17 35 17 35 -125 0 -125 0 0 125 0
125 -40 0 -40 0 0 -160z"/>
<path d="M2080 470 l0 -160 158 0 158 0 17 29 c9 16 17 32 17 35 0 3 -61 6
-135 6 l-135 0 0 30 0 30 99 0 c92 0 101 2 115 22 9 12 16 26 16 30 0 5 -52 8
-115 8 l-115 0 0 30 0 29 110 3 111 3 20 33 21 32 -171 0 -171 0 0 -160z"/>
<path d="M2802 618 c-5 -7 -27 -42 -49 -78 -22 -36 -63 -102 -91 -147 l-52
-83 43 0 42 0 69 115 c38 63 72 115 76 115 4 0 38 -52 76 -115 68 -114 69
-115 106 -115 21 0 38 3 38 7 0 4 -43 76 -96 160 -86 138 -98 153 -123 153
-16 0 -33 -6 -39 -12z"/>
<path d="M3160 470 l0 -160 35 0 35 0 0 160 0 160 -35 0 -35 0 0 -160z"/>
<path d="M842 398 c-22 -22 -12 -28 49 -28 52 0 60 2 55 16 -3 9 -6 18 -6 20
0 10 -87 3 -98 -8z"/>
<path d="M787 135 c-14 -25 -23 -45 -19 -45 13 1 37 25 38 38 2 27 4 32 14 32
5 0 12 -11 16 -25 5 -22 34 -56 34 -41 0 12 -45 86 -52 86 -3 0 -18 -20 -31
-45z"/>
<path d="M1000 135 l0 -45 48 2 47 1 -43 4 c-52 5 -52 25 -1 34 l34 6 -38 2
c-51 1 -44 24 9 32 l39 6 -47 2 -48 1 0 -45z"/>
<path d="M1226 164 c-10 -25 -7 -74 4 -74 6 0 10 7 10 15 0 20 29 19 53 -2 19
-17 20 -17 14 -1 -3 10 -2 20 3 23 16 10 12 42 -6 49 -30 11 -72 6 -78 -10z
m79 -14 c0 -10 -12 -16 -32 -18 -28 -3 -33 0 -33 18 0 18 5 21 33 18 20 -2 32
-8 32 -18z"/>
<path d="M1462 168 c-7 -7 -12 -21 -12 -32 0 -37 14 -47 61 -44 40 3 44 6 47
31 2 16 -2 35 -9 43 -14 17 -70 19 -87 2z m83 -33 c0 -27 -3 -30 -37 -33 -30
-3 -38 1 -43 18 -10 30 12 52 49 48 27 -3 31 -7 31 -33z"/>
<path d="M1700 165 c-17 -21 -4 -33 40 -37 47 -4 44 -22 -5 -29 l-40 -6 43 -2
c31 -1 44 3 49 15 7 20 -13 34 -49 34 -44 0 -35 28 10 33 l37 4 -36 1 c-22 1
-42 -4 -49 -13z"/>
<path d="M1921 133 c1 -27 3 -40 6 -30 3 12 15 17 44 17 26 0 42 5 45 15 10
25 -16 45 -57 45 l-39 0 1 -47z m77 15 c3 -15 -4 -18 -32 -18 -30 0 -36 4 -36
21 0 17 5 20 32 17 22 -2 34 -9 36 -20z"/>
<path d="M2162 141 c-25 -45 -28 -58 -8 -42 8 7 17 23 20 37 8 30 30 27 34 -4
3 -19 32 -53 32 -37 0 12 -43 85 -50 85 -3 0 -16 -17 -28 -39z"/>
<path d="M2381 166 c-7 -8 -11 -27 -9 -43 3 -26 7 -28 48 -29 l45 -2 -40 7
c-36 5 -40 9 -40 36 0 27 4 31 40 36 l40 6 -36 2 c-21 0 -42 -5 -48 -13z"/>
<path d="M2590 135 l0 -45 48 2 c43 1 44 2 10 5 -48 5 -51 30 -5 36 l32 4 -32
1 c-48 3 -44 30 5 35 34 3 33 4 -10 5 l-48 2 0 -45z"/>
<path d="M445 130 c74 -12 205 -12 205 0 0 6 -48 9 -127 9 -101 -1 -117 -3
-78 -9z"/>
<path d="M2790 130 c0 -12 144 -12 210 -1 34 7 15 9 -82 10 -80 1 -128 -3
-128 -9z"/>
</g>
</svg>
