<?xml version="1.0" standalone="no"?>
<!DOCTYPE svg PUBLIC "-//W3C//DTD SVG 20010904//EN"
 "http://www.w3.org/TR/2001/REC-SVG-20010904/DTD/svg10.dtd">
<svg version="1.0" xmlns="http://www.w3.org/2000/svg"
 width="1254.000000pt" height="1254.000000pt" viewBox="0 0 1254.000000 1254.000000"
 preserveAspectRatio="xMidYMid meet">
<metadata>
Created by potrace 1.16, written by Peter Selinger 2001-2019
</metadata>
<g transform="translate(0.000000,1254.000000) scale(0.100000,-0.100000)"
fill="#000000" stroke="none">
<path d="M2592 9752 c-68 -22 -119 -64 -130 -105 -7 -28 -13 -32 -45 -35 -28
-2 -37 -8 -37 -22 0 -14 9 -20 33 -23 31 -4 31 -4 -5 -5 -35 -2 -38 0 -38 26
0 26 -6 31 -112 72 -133 51 -180 57 -356 41 -371 -34 -1421 -146 -1474 -157
-36 -7 -42 -29 -15 -59 22 -26 23 -26 372 -50 706 -49 1192 -77 1260 -72 58 4
90 14 192 61 124 57 188 70 231 47 9 -5 25 -12 34 -15 25 -7 11 -46 -16 -46
-12 0 -47 -19 -79 -42 -55 -41 -57 -43 -57 -89 0 -25 -2 -59 -5 -75 -9 -48 3
-55 65 -34 40 13 100 21 215 25 180 8 265 -5 357 -51 l51 -26 -5 98 -5 98 -39
34 c-22 19 -54 41 -71 48 -18 8 -33 18 -33 23 0 11 34 41 48 41 7 0 12 4 12 9
0 4 19 11 43 14 36 5 56 -1 142 -41 99 -47 101 -47 200 -46 77 1 247 26 725
107 754 128 726 122 746 153 34 51 53 50 -643 65 -356 8 -709 14 -783 14
l-135 0 -120 -57 c-148 -71 -164 -72 -190 -16 -43 90 -203 133 -333 90z m193
-18 c11 -3 25 -16 32 -30 l11 -24 -56 1 c-32 0 -66 4 -76 8 -17 7 -17 9 9 29
28 22 45 26 80 16z m1990 -49 c-22 -8 -663 -104 -699 -105 -54 -1 17 12 299
55 171 25 315 48 320 50 6 2 28 3 50 3 22 0 36 -1 30 -3z m-1980 -31 c9 -9 15
-18 13 -19 -2 -2 -30 2 -63 9 -64 14 -66 13 22 24 6 1 19 -5 28 -14z m1248
-81 c-7 -2 -21 -2 -30 0 -10 3 -4 5 12 5 17 0 24 -2 18 -5z m-70 -10 c-7 -2
-19 -2 -25 0 -7 3 -2 5 12 5 14 0 19 -2 13 -5z m-60 -10 c-7 -2 -19 -2 -25 0
-7 3 -2 5 12 5 14 0 19 -2 13 -5z m-1105 -139 c18 -5 20 -9 11 -20 -12 -15
-13 -15 51 -33 27 -8 6 -9 -85 -5 -125 6 -186 24 -81 24 l58 0 -23 20 -24 19
35 1 c19 0 45 -3 58 -6z m-5 -104 c7 -31 0 -60 -13 -60 -4 0 -7 18 -6 40 0 22
-3 42 -9 44 -5 3 -3 5 6 5 11 1 19 -10 22 -29z m17 -86 c0 -2 -15 -4 -32 -3
-27 0 -29 2 -13 8 18 8 45 4 45 -5z"/>
<path d="M9812 9751 c-60 -21 -99 -52 -117 -96 -11 -26 -18 -30 -48 -29 -20 1
-71 18 -114 38 -177 85 -129 79 -578 72 -668 -12 -1134 -24 -1145 -31 -14 -9
15 -62 37 -69 18 -5 112 -22 548 -97 955 -164 935 -162 1091 -91 69 32 104 42
143 42 29 0 51 -5 51 -11 0 -5 13 -14 28 -20 43 -15 37 -41 -17 -66 -85 -41
-97 -59 -105 -158 -4 -48 -5 -90 -1 -93 3 -3 20 2 39 10 67 33 308 63 414 53
90 -8 178 -30 211 -52 l24 -16 -6 94 c-6 91 -7 95 -39 123 -18 15 -52 37 -74
47 -51 23 -63 46 -29 55 13 3 29 12 35 19 23 27 116 9 231 -46 60 -28 126 -55
146 -59 32 -8 199 2 1412 82 180 11 186 13 215 39 57 51 50 52 -499 113 -498
55 -917 99 -1071 112 -81 6 -82 6 -208 -45 -86 -34 -141 -51 -171 -51 -41 0
-44 2 -55 35 -32 96 -208 144 -348 96z m202 -22 c14 -11 26 -25 26 -30 0 -5
-34 -9 -75 -9 -79 0 -88 7 -55 40 26 26 70 26 104 -1z m-1967 -54 c87 -14 311
-50 497 -80 187 -30 346 -55 354 -55 9 0 12 -3 9 -6 -6 -6 -41 -2 -252 31
-118 19 -448 70 -654 101 -91 13 -167 27 -170 29 -10 11 65 4 216 -20z m36 18
c-13 -2 -35 -2 -50 0 -16 2 -5 4 22 4 28 0 40 -2 28 -4z m1927 -23 c17 -5 1
-8 -50 -8 -54 0 -67 2 -45 8 39 10 64 10 95 0z m238 -97 c-10 -2 -28 -2 -40 0
-13 2 -5 4 17 4 22 1 32 -1 23 -4z m-1285 -50 c-7 -2 -21 -2 -30 0 -10 3 -4 5
12 5 17 0 24 -2 18 -5z m60 -10 c-7 -2 -21 -2 -30 0 -10 3 -4 5 12 5 17 0 24
-2 18 -5z m994 -89 c30 -8 19 -24 -15 -24 -39 0 -73 11 -66 21 6 10 48 12 81
3z m90 -54 c14 -9 -5 -10 -82 -6 -55 3 -118 6 -140 7 -39 1 -39 2 -10 10 41
11 210 3 232 -11z m-90 -26 c-3 -3 -12 -4 -19 -1 -8 3 -5 6 6 6 11 1 17 -2 13
-5z m6 -111 c-13 -2 -33 -2 -45 0 -13 2 -3 4 22 4 25 0 35 -2 23 -4z"/>
<path d="M2556 9172 c-3 -5 -33 -16 -68 -26 -155 -42 -143 -34 -146 -95 -3
-44 22 -192 45 -274 9 -33 115 -71 413 -146 72 -18 129 -41 495 -204 229 -102
383 -173 859 -397 222 -104 409 -190 414 -190 6 0 25 26 42 58 39 69 105 164
177 254 29 37 50 69 45 71 -4 3 -133 57 -287 122 -451 189 -608 255 -645 271
-19 9 -208 86 -420 171 -212 86 -397 162 -412 169 -25 13 -28 20 -28 62 0 26
-4 52 -8 58 -21 32 -135 60 -302 74 -68 6 -129 15 -134 20 -12 12 -33 13 -40
2z m270 -52 c15 -6 25 -12 23 -14 -9 -7 -188 7 -183 15 7 12 127 11 160 -1z
m180 -248 c-5 -4 -66 26 -66 33 0 3 16 -3 35 -12 19 -9 33 -18 31 -21z m406
-166 c208 -87 530 -229 723 -318 88 -41 226 -105 307 -143 82 -38 146 -70 145
-72 -2 -2 -105 42 -228 98 -123 55 -422 189 -664 296 -242 107 -442 197 -444
199 -12 11 21 -1 161 -60z"/>
<path d="M9805 9171 c-3 -5 -20 -13 -38 -16 -17 -4 -66 -18 -108 -31 -84 -26
-89 -34 -89 -124 l0 -37 -262 -113 c-145 -62 -423 -182 -618 -267 -195 -85
-416 -182 -491 -215 l-137 -59 52 -52 c74 -74 118 -167 124 -262 5 -74 9 -83
28 -66 5 4 115 58 244 118 343 161 453 212 882 407 348 157 403 179 540 215
189 48 265 76 282 104 13 21 34 107 55 227 11 65 5 110 -16 110 -8 0 -11 -5
-7 -12 4 -7 3 -8 -5 -4 -6 4 -9 12 -6 17 7 10 7 10 -59 15 -27 2 -63 8 -80 14
-17 6 -82 14 -143 17 -62 3 -113 10 -113 15 0 11 -27 10 -35 -1z m275 -51 c17
-5 -5 -8 -65 -8 -49 0 -99 3 -110 8 -26 11 140 11 175 0z m-575 -297 c-16 -9
-120 -58 -230 -108 -190 -88 -520 -242 -759 -354 -60 -29 -110 -50 -112 -48
-10 10 1087 524 1121 526 6 0 -3 -7 -20 -16z"/>
<path d="M950 9008 c46 -43 135 -106 290 -203 124 -76 277 -171 340 -211 63
-39 234 -145 380 -236 146 -91 423 -263 615 -383 1189 -740 1824 -1224 2530
-1928 233 -233 278 -273 422 -384 48 -36 58 -51 77 -105 44 -129 143 -273 244
-354 68 -55 192 -116 282 -139 50 -13 94 -16 195 -13 112 4 141 9 210 34 103
38 160 71 245 145 105 90 203 241 233 359 12 48 17 53 157 159 85 64 160 129
182 157 77 103 552 555 813 775 424 357 935 727 1535 1111 306 196 1183 743
1375 858 227 136 509 322 550 363 28 27 46 48 40 46 -5 -3 -118 -57 -249 -122
-131 -64 -240 -117 -241 -117 -1 0 -121 -61 -266 -136 -755 -391 -1667 -938
-2134 -1283 -387 -285 -582 -445 -1001 -822 -71 -63 -136 -119 -144 -123 -21
-12 -16 -8 205 195 225 207 352 316 549 474 143 115 187 155 104 95 -32 -23
-44 -27 -51 -18 -6 9 -7 8 -4 -4 4 -11 -4 -22 -21 -34 -15 -9 -24 -13 -20 -9
4 5 2 15 -5 24 -11 14 -10 14 6 2 9 -7 17 -12 18 -10 8 41 8 49 -1 44 -5 -3
-10 0 -10 7 -1 9 -5 7 -14 -5 -11 -15 -15 -15 -19 -3 -3 8 -14 13 -24 12 -26
-4 -59 39 -54 72 1 7 -10 12 -26 13 -23 0 -24 2 -9 8 17 7 17 8 2 24 -22 21
-27 22 -19 1 5 -14 3 -15 -15 -5 -11 6 -24 11 -29 11 -14 0 -54 -70 -47 -83 4
-7 4 -9 -1 -5 -4 4 -15 2 -23 -5 -20 -16 -31 -33 175 276 95 142 169 257 164
255 -4 -2 -86 -120 -182 -263 -341 -507 -601 -867 -903 -1253 -77 -99 -81
-102 -89 -77 -6 17 -5 31 3 41 10 12 10 13 -1 9 -8 -3 -26 -23 -39 -45 -26
-42 -40 -51 -40 -25 0 9 -11 38 -25 65 -48 95 -86 560 -65 804 35 417 207 716
461 799 99 33 180 41 275 27 137 -21 199 -57 229 -135 l15 -40 -5 48 c-12 119
-101 206 -258 252 -140 41 -396 36 -617 -11 -688 -146 -1229 -565 -1546 -1195
-119 -237 -158 -397 -152 -616 4 -133 -1 -174 -16 -120 -9 34 -7 244 4 317 5
36 21 103 35 150 40 130 39 128 22 108 -8 -10 -17 -15 -20 -11 -4 3 -7 1 -7
-5 0 -7 -9 -12 -20 -12 -13 0 -20 -7 -20 -20 0 -21 -19 -27 -36 -10 -15 15
-55 -42 -43 -61 14 -23 11 -29 -16 -29 -19 0 -27 7 -35 33 -9 28 -9 26 -4 -17
3 -27 19 -92 34 -145 16 -53 27 -97 25 -99 -4 -5 -51 141 -69 218 -38 162 -45
419 -16 573 6 33 9 61 7 64 -7 6 -26 -114 -38 -240 -22 -227 16 -469 122 -772
23 -66 43 -133 45 -150 4 -29 2 -28 -46 25 -50 54 -379 487 -475 625 -295 423
-396 571 -560 820 -105 160 -201 307 -213 327 -17 27 -45 49 -105 81 -88 47
-197 98 -197 92 0 -2 57 -33 128 -70 70 -37 132 -71 139 -77 6 -5 27 -35 45
-66 19 -31 43 -70 54 -87 13 -21 15 -27 4 -20 -26 16 -43 14 -74 -8 -16 -11
-26 -15 -21 -7 5 8 -6 4 -23 -8 -17 -13 -34 -27 -37 -32 -3 -5 -12 -7 -19 -4
-8 3 -17 0 -22 -7 -4 -8 -3 -10 4 -5 8 5 12 0 12 -12 0 -11 -7 -23 -16 -26
-15 -6 -14 -9 6 -31 14 -15 19 -28 14 -37 -6 -9 -3 -9 10 2 11 9 14 16 7 18
-6 2 -16 13 -22 24 -10 19 -10 19 16 2 29 -19 27 -45 -7 -79 -17 -17 -20 -17
-15 -3 3 10 1 20 -6 24 -7 4 -9 3 -4 -1 4 -5 0 -17 -9 -27 -14 -15 -15 -20 -4
-33 11 -13 11 -19 -3 -32 -14 -14 -15 -12 -13 26 3 38 -6 53 -18 32 -7 -10
-56 -2 -74 12 -7 5 -16 7 -19 3 -18 -18 -7 -39 37 -71 55 -40 79 -47 35 -9
-16 14 -21 21 -10 15 11 -5 31 -20 45 -33 14 -13 20 -19 13 -14 -8 5 -16 6
-19 3 -3 -3 34 -36 83 -73 267 -207 653 -545 893 -783 l145 -143 -175 163
c-638 595 -1102 952 -1840 1414 -577 362 -1183 697 -1822 1005 -191 93 -362
178 -380 190 -19 13 -5 -5 32 -42z m3435 -1604 c9 -15 12 -23 6 -20 -11 7 -35
46 -28 46 3 0 12 -12 22 -26z m2187 -633 c165 -43 346 -162 460 -306 l40 -50
-43 48 c-24 26 -47 47 -51 47 -4 0 -14 -13 -23 -30 -9 -16 -13 -30 -10 -30 4
0 3 -5 0 -11 -5 -7 -17 -2 -33 13 l-26 23 27 -35 c93 -117 131 -173 162 -236
48 -98 44 -112 -6 -18 -59 112 -94 160 -178 244 -172 171 -356 248 -604 251
l-102 2 75 8 c41 4 107 5 145 2 43 -3 65 -1 57 4 -18 13 22 63 51 64 17 0 14
4 -13 14 -52 20 -14 18 72 -4z m13 -295 c19 -8 35 -17 35 -20 0 -5 -71 22 -79
30 -9 8 11 4 44 -10z m-132 -162 c188 -56 357 -239 397 -431 33 -156 -19 -355
-120 -463 -35 -37 -37 -38 -10 -6 36 43 94 163 104 211 l6 30 -15 -25 c-13
-22 -14 -23 -15 -5 0 11 -18 -18 -40 -64 -80 -168 -237 -278 -424 -297 -137
-14 -302 50 -399 156 -102 110 -158 270 -144 410 4 36 3 49 -3 40 -8 -12 -10
-10 -11 10 -3 59 -17 -37 -18 -125 0 -74 4 -105 28 -174 16 -47 22 -76 14 -66
-7 11 -20 42 -29 70 -107 355 103 695 461 749 47 7 161 -4 218 -20z m-1003
-109 c0 -5 -5 -3 -10 5 -5 8 -10 20 -10 25 0 6 5 3 10 -5 5 -8 10 -19 10 -25z
m29 -70 c0 -5 -6 1 -14 15 -8 14 -14 30 -14 35 0 6 6 -1 14 -15 8 -14 14 -29
14 -35z"/>
<path d="M6940 6536 c0 -2 8 -10 18 -17 15 -13 16 -12 3 4 -13 16 -21 21 -21
13z"/>
<path d="M6159 6242 c-253 -84 -398 -338 -334 -585 50 -194 200 -333 395 -368
195 -34 419 73 512 246 115 215 51 487 -148 630 -91 66 -155 87 -274 91 -73 3
-108 0 -151 -14z m306 -76 c28 -13 58 -32 68 -44 14 -16 0 -11 -58 18 -42 21
-80 41 -83 44 -13 14 27 4 73 -18z m-52 -106 c68 -26 122 -79 114 -113 -4 -13
-17 -35 -30 -49 -18 -19 -23 -34 -19 -57 4 -26 0 -32 -23 -41 -22 -8 -31 -7
-46 6 -13 12 -22 13 -37 5 -27 -15 -43 -7 -69 34 -31 46 -38 82 -22 101 12 15
9 16 -27 13 -34 -4 -40 -2 -33 11 4 8 13 36 21 63 l12 47 53 0 c29 0 76 -9
106 -20z m55 6 c26 -14 63 -50 92 -91 8 -11 -6 -2 -31 20 -25 22 -58 50 -75
62 -33 25 -26 30 14 9z m-228 -391 c12 -22 12 -28 -3 -43 -22 -21 -50 -6 -55
28 -7 42 37 53 58 15z m-30 -144 c25 -11 59 -21 75 -22 22 -2 19 -4 -15 -8
l-45 -6 32 -32 c17 -18 26 -34 20 -34 -7 -1 6 -5 28 -10 31 -6 23 -7 -36 -5
-107 4 -181 44 -242 131 -19 28 -20 29 -1 13 19 -17 21 -16 47 7 17 17 24 31
20 43 -3 9 11 1 33 -20 21 -20 59 -46 84 -57z m-85 -162 c66 -31 63 -37 -7
-13 -49 16 -121 72 -140 107 -7 13 8 4 38 -22 27 -24 76 -57 109 -72z"/>
<path d="M5200 8828 c0 -26 21 -35 135 -57 61 -12 128 -28 151 -37 38 -14 44
-13 110 12 38 14 101 34 139 43 l70 18 -105 12 c-58 7 -194 15 -302 18 -174 5
-198 4 -198 -9z"/>
<path d="M6120 8689 c-52 -5 -104 -10 -115 -12 -26 -5 -18 -7 127 -42 64 -15
168 -47 230 -70 l113 -42 30 -55 c17 -30 62 -86 100 -124 120 -119 223 -164
380 -164 93 0 146 11 330 70 50 16 131 36 180 45 50 9 99 19 110 22 l20 6 -20
8 c-15 6 -12 8 17 8 39 1 180 -16 212 -26 35 -10 6 18 -70 67 l-74 49 29 17
c25 15 59 71 49 79 -2 1 -28 5 -59 8 l-56 5 -22 -46 c-45 -95 -40 -91 -124
-76 -41 7 -123 31 -183 55 -529 203 -802 253 -1204 218z m686 -170 c70 -6 153
-19 185 -29 59 -19 120 -47 129 -60 3 -4 19 -14 35 -23 17 -9 24 -16 17 -17
-7 0 -41 -22 -76 -50 -61 -48 -66 -50 -126 -50 -57 0 -64 3 -93 33 -49 51
-117 141 -117 154 0 6 -26 20 -57 31 -69 24 -61 25 103 11z m279 -260 c-22
-10 -49 -18 -60 -18 -11 0 3 9 30 19 65 24 81 24 30 -1z m-240 -9 c13 -6 15
-9 5 -9 -8 0 -22 4 -30 9 -18 12 -2 12 25 0z m118 -17 c-18 -2 -48 -2 -65 0
-18 2 -4 4 32 4 36 0 50 -2 33 -4z"/>
<path d="M5649 8315 c-370 -79 -695 -226 -992 -448 l-108 -81 6 -36 c4 -19 9
-38 11 -42 3 -4 25 7 49 23 118 80 418 196 605 234 83 17 85 18 169 96 112
103 227 189 321 239 86 45 83 46 -61 15z"/>
<path d="M8197 7980 c3 -41 7 -77 9 -79 8 -8 2 105 -6 129 -5 15 -6 -6 -3 -50z"/>
<path d="M5269 7953 c-13 -16 -12 -17 4 -4 9 7 17 15 17 17 0 8 -8 3 -21 -13z"/>
<path d="M8212 7827 c-12 -34 -40 -84 -62 -112 -61 -77 -73 -95 -67 -101 10
-11 78 68 106 124 28 55 56 140 49 147 -2 2 -14 -24 -26 -58z"/>
<path d="M5625 7761 c-246 -106 -483 -277 -647 -465 -62 -72 -68 -83 -62 -110
3 -17 8 -33 10 -35 2 -2 36 27 77 65 112 107 296 221 450 279 41 16 56 30 122
120 41 57 98 124 126 149 28 25 47 46 43 45 -5 0 -58 -22 -119 -48z"/>
<path d="M4093 7714 c0 -7 11 -17 23 -23 22 -10 23 -9 13 13 -11 24 -36 31
-36 10z"/>
<path d="M4070 7695 c0 -3 9 -14 21 -26 18 -18 20 -18 17 -2 -3 18 -16 33 -30
33 -5 0 -8 -2 -8 -5z"/>
<path d="M3720 7486 c0 -3 20 -19 45 -36 25 -17 45 -29 45 -26 0 3 -20 19 -45
36 -25 17 -45 29 -45 26z"/>
<path d="M3965 7470 c-3 -5 -12 -7 -20 -3 -9 3 -15 -1 -15 -11 0 -22 13 -20
35 4 10 11 15 20 12 20 -3 0 -8 -4 -12 -10z"/>
<path d="M3956 7431 c-4 -7 -5 -15 -2 -18 9 -9 19 4 14 18 -4 11 -6 11 -12 0z"/>
<path d="M3872 7374 c10 -10 20 -15 24 -12 3 4 -5 12 -18 18 -22 12 -22 12 -6
-6z"/>
<path d="M8610 7309 l-35 -30 38 26 c33 24 43 35 34 35 -1 0 -18 -14 -37 -31z"/>
<path d="M4926 7274 c-5 -14 -4 -15 9 -4 17 14 19 20 6 20 -5 0 -12 -7 -15
-16z"/>
<path d="M8549 7263 c-13 -16 -12 -17 4 -4 9 7 17 15 17 17 0 8 -8 3 -21 -13z"/>
<path d="M5351 7134 c0 -11 3 -14 6 -6 3 7 2 16 -1 19 -3 4 -6 -2 -5 -13z"/>
<path d="M5352 6585 c0 -16 2 -22 5 -12 2 9 2 23 0 30 -3 6 -5 -1 -5 -18z"/>
<path d="M5328 6162 c13 -17 28 -35 34 -39 7 -3 2 8 -10 25 -13 17 -28 35 -34
39 -7 3 -2 -8 10 -25z"/>
<path d="M5395 6076 c10 -14 19 -26 22 -26 7 0 -17 39 -28 46 -6 3 -3 -5 6
-20z"/>
<path d="M5410 6016 c0 -2 8 -10 18 -17 15 -13 16 -12 3 4 -13 16 -21 21 -21
13z"/>
<path d="M7380 5860 c-47 -37 -141 -108 -209 -157 -121 -87 -124 -90 -147
-151 -42 -113 -96 -202 -168 -279 -256 -275 -649 -329 -955 -133 -136 87 -240
216 -306 380 l-32 79 -164 122 c-90 67 -177 136 -192 152 -15 16 -29 28 -31
26 -2 -2 34 -65 82 -139 47 -74 107 -173 134 -220 147 -254 281 -418 417 -509
297 -201 678 -205 978 -9 102 66 235 200 310 313 106 159 379 596 371 594 -2
0 -41 -31 -88 -69z"/>
<path d="M7595 3925 c-4 -275 -5 -538 -3 -585 l3 -85 560 0 560 0 67 120 c37
66 68 122 68 125 0 3 -217 4 -481 3 -265 -2 -484 -1 -488 1 -3 2 -5 52 -3 110
l3 106 358 0 358 0 64 112 c35 61 65 114 66 117 2 3 -187 5 -420 5 -232 -1
-424 -1 -427 1 -3 2 -4 51 -2 109 l3 106 398 0 399 0 71 124 c39 68 71 125 71
127 0 2 -274 4 -609 4 l-609 0 -7 -500z"/>
<path d="M1002 3838 l3 -583 570 0 569 0 54 90 c29 50 61 106 71 125 l19 35
-506 -3 -505 -4 6 69 c4 37 7 87 7 111 l0 42 373 0 372 0 36 63 c20 34 50 87
67 117 l31 55 -447 3 c-352 2 -446 5 -443 15 2 6 6 54 9 105 l4 92 418 0 417
0 72 118 c39 65 71 122 71 125 0 4 -286 7 -635 7 l-635 0 2 -582z"/>
<path d="M3226 4398 c-34 -55 -392 -640 -491 -803 -60 -99 -130 -214 -156
-255 -26 -41 -46 -77 -43 -81 2 -4 73 -7 156 -6 l152 2 264 438 264 438 48
-83 c50 -88 239 -407 385 -650 l89 -148 105 0 c58 0 129 3 158 6 l52 7 -23 31
c-13 17 -52 78 -86 136 -35 58 -109 179 -165 270 -56 91 -155 253 -220 360
-65 107 -141 232 -169 277 l-51 83 -127 0 c-121 0 -128 -1 -142 -22z"/>
<path d="M4751 4400 c-181 -48 -312 -186 -357 -376 -20 -87 -21 -275 0 -363
45 -193 188 -342 376 -392 29 -7 171 -13 398 -16 357 -5 452 1 512 32 41 21
88 75 96 109 4 17 8 150 8 296 l1 265 -286 0 -287 0 -61 -108 c-33 -60 -58
-113 -55 -118 3 -5 97 -9 210 -9 l204 0 0 -111 0 -112 -312 5 c-337 6 -362 9
-432 63 -74 56 -117 223 -91 349 24 115 71 183 153 223 l57 28 387 3 386 3 55
92 c30 51 62 107 71 125 l17 32 -488 -1 c-450 0 -494 -2 -562 -19z"/>
<path d="M6142 3838 l3 -583 520 0 520 0 67 120 c37 66 67 122 67 125 1 3
-202 4 -449 2 l-450 -3 2 460 3 461 -143 0 -142 0 2 -582z"/>
<path d="M10110 4294 c-41 -69 -138 -227 -215 -352 -78 -125 -189 -306 -249
-402 -59 -96 -123 -199 -142 -227 l-34 -53 158 0 157 0 46 78 c25 42 142 236
259 430 l214 354 14 -29 c24 -45 411 -691 459 -765 l44 -68 149 0 c83 0 150 2
150 5 0 3 -9 18 -19 33 -27 39 -651 1047 -677 1094 -8 15 -29 18 -124 22
l-115 4 -75 -124z"/>
<path d="M11440 3839 l0 -579 135 0 135 0 0 579 -1 580 -134 0 -135 0 0 -580z"/>
<path d="M3183 3556 c-24 -40 -43 -75 -43 -77 0 -5 469 -3 475 2 2 3 -14 37
-36 77 l-40 72 -157 0 -157 0 -42 -74z"/>
<path d="M3000 2644 c-47 -87 -86 -161 -88 -166 -2 -4 10 -8 26 -8 24 0 35 8
52 35 l22 35 112 0 113 0 19 -35 c15 -29 24 -35 51 -35 l33 0 -35 63 c-19 34
-58 107 -88 162 -54 98 -55 100 -93 103 l-39 3 -85 -157z m169 29 c23 -43 41
-81 41 -85 0 -9 -164 -11 -172 -3 -6 6 74 165 84 165 4 0 25 -35 47 -77z"/>
<path d="M3770 2645 c0 -85 1 -158 3 -162 1 -5 70 -8 154 -9 148 0 152 0 162
23 l10 22 -137 3 -137 3 0 45 0 45 105 3 c84 2 107 6 118 19 6 9 12 19 12 22
0 3 -54 5 -121 3 l-120 -3 3 46 3 47 122 -1 c110 0 124 2 133 19 5 10 10 21
10 24 0 3 -72 6 -160 6 l-160 0 0 -155z"/>
<path d="M4550 2635 l0 -165 30 0 30 0 0 60 0 60 73 0 74 0 46 -60 c42 -54 51
-60 83 -60 l36 0 -50 57 c-51 58 -56 73 -23 73 33 0 63 44 63 95 0 88 -35 105
-222 105 l-140 0 0 -165z m252 119 c48 -8 69 -50 44 -89 -16 -24 -20 -25 -126
-25 l-110 0 0 55 0 54 58 4 c31 2 66 4 77 5 11 1 37 -1 57 -4z"/>
<path d="M5423 2785 c-46 -20 -57 -48 -57 -147 1 -144 24 -163 201 -163 108 0
125 2 150 21 35 26 52 72 52 144 1 70 -23 119 -69 142 -45 23 -228 25 -277 3z
m257 -43 c40 -32 40 -162 -1 -203 -16 -16 -33 -19 -114 -19 -125 0 -135 8
-135 118 0 42 4 82 8 88 16 24 52 33 133 34 69 0 91 -4 109 -18z"/>
<path d="M6245 2775 c-31 -30 -34 -92 -6 -126 18 -22 28 -24 123 -27 56 -1
113 -5 124 -7 28 -6 37 -43 18 -72 -14 -22 -20 -23 -144 -23 -72 0 -130 -4
-130 -9 0 -5 -3 -16 -6 -25 -5 -14 9 -16 122 -16 195 0 224 13 224 103 0 70
-19 81 -153 87 -62 3 -118 9 -124 13 -20 13 -16 65 6 77 11 5 72 10 135 10 64
0 116 2 116 4 0 2 3 11 6 20 5 14 -11 16 -140 16 -143 0 -148 -1 -171 -25z"/>
<path d="M7030 2635 l0 -165 25 0 c24 0 25 3 25 55 l0 55 105 0 c156 0 195 22
195 110 0 93 -33 110 -215 110 l-135 0 0 -165z m278 103 c17 -15 15 -74 -4
-92 -12 -13 -38 -16 -120 -16 l-104 0 0 60 0 59 73 4 c85 4 137 -1 155 -15z"/>
<path d="M7870 2643 c-47 -86 -86 -161 -88 -165 -2 -4 10 -8 26 -8 24 0 34 7
51 35 l20 35 115 0 114 0 21 -35 c16 -28 27 -35 51 -35 17 0 29 3 27 8 -2 4
-44 78 -91 165 l-88 157 -36 0 -37 0 -85 -157z m169 33 c23 -40 41 -79 41 -85
0 -7 -29 -11 -85 -11 -49 0 -85 4 -85 10 0 15 74 160 81 160 4 0 26 -33 48
-74z"/>
<path d="M8674 2781 c-42 -26 -57 -74 -52 -167 3 -63 7 -78 29 -100 33 -33 81
-43 200 -44 97 0 109 4 109 41 0 5 -52 9 -115 9 -110 0 -117 1 -140 25 -22 21
-25 33 -25 95 0 57 4 74 20 90 24 24 18 23 144 24 92 2 99 3 107 24 8 22 8 22
-119 22 -108 0 -132 -3 -158 -19z"/>
<path d="M9415 2637 l0 -162 150 -3 c132 -2 151 -1 162 15 7 9 13 20 13 25 0
4 -61 8 -135 8 l-135 0 0 50 0 50 110 0 c98 0 110 2 120 20 10 19 6 19 -107
22 l-118 3 -3 42 c-3 41 -2 42 31 48 19 4 73 5 122 3 81 -3 88 -1 102 20 l15
22 -163 0 -164 0 0 -163z"/>
<path d="M2440 2674 c-30 -2 -289 -8 -575 -15 -286 -6 -549 -15 -585 -19 l-65
-7 92 -2 c131 -2 1053 -39 1144 -46 85 -7 89 -4 89 61 0 29 -3 34 -22 32 -13
-1 -48 -3 -78 -4z"/>
<path d="M10124 2664 c3 -9 6 -31 6 -50 l0 -34 108 5 c241 13 1021 45 1111 46
84 1 90 2 46 9 -27 4 -313 13 -635 19 -322 7 -598 14 -614 16 -22 4 -27 2 -22
-11z"/>
</g>
</svg>
